<svg width="203" height="77" viewBox="0 0 203 77" fill="none" xmlns="http://www.w3.org/2000/svg">
<path d="M60.5938 0.0208054C56.3299 0.286133 52.7503 1.66586 48.9707 4.51023C46.5703 6.33571 43.1592 9.77442 40.6851 12.9053C38.4847 15.6966 36.7265 18.2014 34.4735 21.7674C33.1364 23.8901 32.4416 25.0894 28.3146 32.2746C25.4298 37.3053 22.882 41.54 20.8817 44.6391C19.0814 47.4091 17.1021 50.296 16.9231 50.4127C16.881 50.4339 16.1546 50.349 15.3228 50.2111C12.7435 49.7759 10.5957 49.5955 8.95332 49.6698C4.38412 49.8714 1.86789 51.1662 0.53082 53.9894C-0.121924 55.3797 -0.174565 56.8019 0.383426 57.98C0.678214 58.5956 1.52046 59.4234 2.18374 59.7524C4.1525 60.7182 7.54255 60.7182 10.6273 59.7418C12.6803 59.105 14.7333 57.704 17.0179 55.4116C17.797 54.6156 18.4602 54 18.4918 54.0212C18.5234 54.0531 19.7025 54.4351 21.1133 54.8703C23.419 55.5814 29.2621 57.5448 35.4842 59.7099C41.8853 61.9387 48.3391 63.5732 54.119 64.4329C59.4357 65.2289 65.5841 65.3456 69.3321 64.7406C72.438 64.2312 75.7754 62.9576 78.081 61.4081C80.0287 60.1026 81.8817 58.2453 83.0398 56.4411C83.3977 55.8998 83.5241 55.783 83.7557 55.783C83.9136 55.783 84.0926 55.7193 84.1558 55.6451C84.2084 55.5814 84.6611 54.0318 85.1559 52.2276C85.6507 50.4127 86.4825 47.3349 87.0194 45.382C88.1038 41.3808 89.2303 37.3053 90.1673 33.9197C90.5147 32.6673 91.0938 30.534 91.4412 29.1967C91.7992 27.8489 92.1255 26.6389 92.1571 26.4904C92.1992 26.3418 92.2729 26.2462 92.315 26.2781C92.4519 26.363 92.3993 52.27 92.2729 52.7582C91.915 54.0531 91.0622 54.9658 89.9883 55.1993C89.7041 55.2524 89.6409 55.316 89.6725 55.4965C89.7041 55.73 89.7041 55.73 94.3364 55.73C98.832 55.73 98.9688 55.7193 98.9688 55.5283C98.9688 55.3797 98.832 55.2736 98.4951 55.1568C97.4317 54.7854 96.8211 54.1486 96.421 52.9811C96.242 52.4717 96.2315 51.5908 96.2315 37.2098C96.2315 22.5316 96.242 21.9585 96.4315 21.396C96.8211 20.2497 97.4317 19.6023 98.4424 19.2521C98.8214 19.1247 98.9794 19.0186 99.0004 18.8594C99.032 18.6365 99.032 18.6365 94.347 18.6365C89.7357 18.6365 89.6514 18.6365 89.6514 18.8488C89.6514 18.9761 89.7357 19.0717 89.8936 19.1035C91.378 19.4113 92.0097 19.6978 92.3677 20.2285C92.7151 20.7592 92.6625 21.2155 91.9676 23.7309C90.9043 27.5517 90.5463 28.8359 89.504 32.593C88.9566 34.5777 88.2617 37.0824 87.9669 38.165C87.6616 39.2475 87.2616 40.7015 87.072 41.402C84.8506 49.4893 83.9873 52.4929 83.8504 52.6627C83.703 52.8431 83.4398 52.8538 83.4398 52.6733C83.4398 52.6097 82.7766 50.1368 81.9554 47.1863C81.1447 44.2358 80.1761 40.7228 79.8076 39.3855C79.4392 38.0376 78.6285 35.1296 78.0179 32.9114C77.3967 30.6932 76.6597 28.0187 76.3649 26.9679C75.7859 24.8559 74.9226 21.7674 74.8384 21.4809C74.7331 21.1306 74.9226 20.5469 75.2595 20.1542C75.649 19.7085 76.2386 19.4219 77.1545 19.2309C77.6915 19.1247 77.8178 19.061 77.8389 18.87C77.8705 18.6365 77.8705 18.6365 73.1539 18.6577C68.9321 18.6896 68.4373 18.7108 68.4057 18.8594C68.3846 18.9868 68.5531 19.0929 69.0268 19.2733C69.8586 19.5705 70.5429 20.2603 70.9114 21.1306C71.1746 21.7674 71.1746 21.7674 71.2062 36.7322C71.2272 45.7959 71.1956 51.9516 71.1325 52.3443C70.9219 53.7453 70.1639 54.7429 69.0268 55.125C68.5846 55.2736 68.4373 55.3691 68.4373 55.5283C68.4373 55.7193 68.5846 55.73 73.0802 55.7618C76.7755 55.783 77.7547 55.7618 77.8389 55.6451C78.0073 55.454 77.8705 55.316 77.3651 55.1675C76.8071 54.9976 76.1123 54.467 75.7333 53.9257C75.1016 52.9811 75.1226 53.4587 75.091 39.2581C75.0805 29.7486 75.1016 26.3205 75.1858 26.4161C75.249 26.4904 75.3858 26.9043 75.4911 27.3394C75.5859 27.7746 76.0175 29.3984 76.4492 30.9479C76.8703 32.4975 77.7441 35.6921 78.3863 38.0588C79.0286 40.4256 79.8392 43.3549 80.1761 44.586C82.1765 51.8349 82.8082 54.1698 82.8082 54.3927C82.8082 55.0613 80.7973 57.4493 79.4076 58.4151C77.2809 59.8904 74.4278 60.835 70.4902 61.3656C68.4688 61.631 63.1521 61.6946 60.857 61.4718C55.0244 60.8986 48.5917 59.6357 41.2642 57.5979C38.1794 56.7488 36.3475 56.1863 31.6941 54.6686C26.2826 52.8962 24.2612 52.2806 22.2293 51.75C21.3765 51.5271 20.6501 51.3148 20.629 51.2936C20.5974 51.2724 20.7659 51.0177 20.987 50.7311C21.7766 49.7228 23.6295 47.1014 24.6613 45.5306C27.7039 40.9032 30.4939 36.2015 34.642 28.7722C35.9369 26.4373 38.1794 22.7226 39.7692 20.2391C44.6753 12.6188 49.3708 7.19539 53.4873 4.40409C54.677 3.59748 56.8668 2.50431 58.1407 2.0904C61.4571 0.997223 64.6366 1.41114 66.5527 3.16234C67.5634 4.09631 68.0688 5.15763 68.0898 6.37817C68.1004 7.09987 67.8898 7.86403 67.3739 8.8829C66.9844 9.63644 66.9317 10.0928 67.1739 10.5598C67.3423 10.8994 67.5213 10.9949 68.0056 10.9949C68.4794 10.9949 68.7426 10.7721 69.0058 10.1353C69.3637 9.30743 69.5427 8.29917 69.5427 7.09987C69.5427 5.35929 69.2479 4.43593 68.2267 2.9713C66.8159 0.965385 63.8575 -0.170235 60.5938 0.0208054ZM46.0123 8.23549C46.0439 8.28856 46.0229 8.34162 45.9702 8.34162C45.9071 8.34162 45.8544 8.28856 45.8544 8.23549C45.8544 8.17181 45.8755 8.12936 45.8965 8.12936C45.9281 8.12936 45.9808 8.17181 46.0123 8.23549ZM10.3746 52.2276C11.6275 52.3868 14.6912 53.0023 14.8175 53.1191C14.9228 53.204 12.7961 55.5814 11.9223 56.3668C10.3325 57.7783 8.83751 58.6698 7.42675 59.0413C6.46869 59.296 4.43676 59.296 3.58398 59.0307C1.92053 58.5319 1.21515 57.6616 1.21515 56.0908C1.21515 55.4116 1.26779 55.1887 1.53099 54.6474C2.6575 52.3762 5.52115 51.5908 10.3746 52.2276ZM92.1255 54.6156C92.1571 54.6686 92.1361 54.7217 92.0834 54.7217C92.0203 54.7217 91.9676 54.6686 91.9676 54.6156C91.9676 54.5519 91.9887 54.5094 92.0097 54.5094C92.0413 54.5094 92.094 54.5519 92.1255 54.6156ZM70.7008 55.0401C70.7008 55.0932 70.6797 55.1462 70.6587 55.1462C70.6271 55.1462 70.5745 55.0932 70.5429 55.0401C70.5113 54.9764 70.5324 54.934 70.585 54.934C70.6482 54.934 70.7008 54.9764 70.7008 55.0401Z" fill="#E99206"/>
<path d="M119.541 9.37063C118.888 10.0817 118.077 11.0581 118.077 11.1324C118.077 11.1643 118.698 11.5888 119.446 12.0664C120.351 12.6501 120.962 13.1277 121.257 13.478C121.509 13.7751 122.067 14.7516 122.52 15.6855C122.962 16.6089 123.373 17.3624 123.436 17.3624C123.583 17.3624 125.352 15.3141 125.31 15.1973C125.289 15.1336 124.657 14.6667 123.91 14.1572C122.046 12.8836 121.646 12.4166 120.762 10.4532C120.372 9.58289 120.035 8.8718 120.025 8.8718C120.014 8.8718 119.793 9.09468 119.541 9.37063ZM119.656 10.4001C119.656 10.432 119.614 10.485 119.551 10.5169C119.498 10.5487 119.446 10.5275 119.446 10.4744C119.446 10.4107 119.498 10.3577 119.551 10.3577C119.614 10.3577 119.656 10.3789 119.656 10.4001Z" fill="#E99206"/>
<path d="M42.7592 18.7319C42.6434 18.9229 42.8223 19.1564 43.1803 19.2732C43.6751 19.443 44.4963 20.2178 44.8332 20.8439C45.5175 22.1175 45.4754 21.1517 45.5386 34.9808C45.6018 47.271 45.6018 47.5788 45.8229 48.5234C46.5493 51.718 48.4233 54.1909 50.9079 55.2522C52.5188 55.9315 54.4665 56.218 56.172 56.0164C57.5196 55.8572 58.4777 55.5282 59.4147 54.8914C61.4571 53.5223 62.8258 51.06 63.5312 47.5045C63.9312 45.488 63.9628 44.3524 63.9628 33.7072C63.9628 28.0185 64.0049 23.0727 64.0576 22.7225C64.2787 21.2048 65.0367 19.9949 66.1 19.4324C66.5528 19.1883 66.7001 19.0609 66.7001 18.8699C66.7001 18.6364 66.7001 18.6364 63.2364 18.6364C60.3622 18.6364 59.7621 18.6576 59.72 18.785C59.6568 18.9548 59.8463 19.1352 60.4149 19.4324C61.0255 19.7402 61.6888 20.5574 62.0888 21.4807C62.4363 22.298 62.4363 22.298 62.4678 32.3806C62.51 43.1531 62.4678 44.2993 62.0046 46.8677C61.215 51.2616 59.4463 54.1378 57.088 54.8914C56.2457 55.1567 54.856 55.2098 54.119 54.9975C51.5818 54.244 49.7393 51.2086 49.4235 47.2392C49.3603 46.4644 49.3287 41.2533 49.3498 34.2379C49.3814 22.5845 49.3814 22.5102 49.613 21.8522C50.0341 20.5998 50.6553 19.8357 51.6554 19.3156C52.0134 19.1352 52.1713 18.9972 52.1713 18.8486C52.1713 18.6364 52.0871 18.6364 47.4968 18.6364C44.7911 18.6364 42.7908 18.6788 42.7592 18.7319Z" fill="#E99206"/>
<path d="M101.085 18.7321C100.969 18.9232 101.148 19.1567 101.506 19.2734C102.432 19.5812 103.517 21.0989 103.759 22.4468C103.906 23.2322 103.906 51.1982 103.759 51.9729C103.612 52.7371 103.138 53.7454 102.675 54.2654C102.464 54.4989 102.043 54.8173 101.738 54.9871C101.116 55.3161 101.011 55.4329 101.095 55.6451C101.138 55.7619 101.98 55.7831 105.844 55.7619C110.129 55.7301 110.55 55.7194 110.581 55.5496C110.602 55.4329 110.413 55.2737 109.971 55.0296C108.918 54.4671 108.265 53.5756 107.918 52.2277C107.781 51.6758 107.76 49.8397 107.76 37.2205C107.76 21.672 107.739 22.1708 108.307 21.0458C108.623 20.3984 109.328 19.7085 110.002 19.3689C110.434 19.146 110.602 18.9975 110.581 18.8701C110.55 18.7003 110.181 18.6897 105.844 18.6578C103.064 18.6472 101.116 18.6791 101.085 18.7321Z" fill="#E99206"/>
<path d="M112.603 18.8375C112.603 18.9967 112.76 19.1347 113.171 19.3257C114.213 19.8245 114.971 20.9177 115.235 22.308C115.319 22.7644 115.34 27.0097 115.319 37.5806C115.287 52.2269 115.287 52.2269 114.982 52.9486C114.603 53.8507 113.855 54.6998 113.139 55.0394C112.708 55.2411 112.603 55.3366 112.624 55.5064C112.655 55.7293 112.655 55.7293 126.605 55.7293C140.471 55.7293 140.555 55.7293 140.586 55.517C140.607 55.3578 140.492 55.2411 140.06 55.0394C139.102 54.5831 138.375 53.6597 138.017 52.4392C137.849 51.8661 137.828 51.1019 137.796 44.6596C137.765 40.0216 137.786 37.5275 137.86 37.5275C137.912 37.5275 138.017 37.6973 138.081 37.899C138.144 38.1006 138.828 39.5971 139.597 41.2209C140.365 42.8341 141.334 44.8719 141.744 45.7528C143.808 50.1467 146.356 55.5276 146.429 55.6444C146.493 55.7505 147.008 55.7824 148.409 55.7824C150.441 55.7824 150.556 55.7505 150.293 55.2517C150.22 55.1137 150.22 55.0394 150.272 55.0819C150.335 55.1137 150.409 54.9651 150.451 54.721C150.493 54.4875 150.567 54.2753 150.62 54.2328C150.788 54.1373 150.725 54.0206 150.135 53.2988C149.419 52.4179 148.83 51.3991 146.893 47.7163C146.05 46.1137 144.65 43.4816 143.797 41.8789C142.239 38.9603 142.239 38.9603 140.923 38.419C140.197 38.1218 139.418 37.8353 139.207 37.7822C138.986 37.7292 138.818 37.6442 138.839 37.5912C138.86 37.5381 140.155 37.4957 141.713 37.485C144.345 37.4638 144.619 37.4532 145.345 37.2197C147.703 36.5086 149.283 34.8211 150.125 32.1572C150.641 30.4909 150.872 28.5168 150.714 27.1371C150.198 22.8175 147.967 20.0156 144.197 18.9649C143.187 18.6889 143.187 18.6889 127.9 18.6571C112.676 18.6358 112.603 18.6358 112.603 18.8375ZM132.08 19.3894C132.943 19.7821 133.564 20.5462 133.827 21.5333C134.048 22.3823 134.038 51.2929 133.817 52.2587C133.617 53.1184 133.332 53.6703 132.785 54.2647C132.427 54.6573 131.522 55.2517 131.29 55.2517C131.258 55.2517 131.237 52.9062 131.237 50.0512C131.237 45.0629 131.227 44.8507 131.048 44.8507C130.869 44.8507 130.837 45.0099 130.721 46.4108C130.395 50.4651 129.774 52.7045 128.637 53.9781C127.868 54.8378 127.889 54.8378 123.257 54.8059L119.235 54.7741V43.8424V32.9107H122.541C125.742 32.9107 125.868 32.9213 126.152 33.1336C127.047 33.8022 127.552 35.5747 127.71 38.5358C127.795 40.011 127.805 40.0959 128.026 40.011C128.163 39.9579 128.184 39.0877 128.184 32.3694C128.184 25.025 128.174 24.7916 127.984 24.7916C127.816 24.7916 127.784 24.9083 127.721 25.821C127.563 28.0604 127.247 29.6524 126.763 30.6289C126.121 31.9131 126.352 31.8388 122.583 31.9025C120.793 31.9343 119.298 31.9237 119.277 31.8812C119.256 31.8494 119.235 29.0475 119.235 25.6725L119.225 19.538L123.099 19.5061C127.616 19.4743 127.795 19.5061 128.563 20.2915C129.711 21.4908 130.427 23.9956 130.753 28.0286C130.848 29.2279 130.9 29.5145 131.027 29.5145C131.164 29.5145 131.185 28.8564 131.216 24.3352C131.248 18.5085 131.164 18.9649 132.08 19.3894ZM141.871 19.6547C143.524 20.0368 145.082 21.1936 145.924 22.6477C146.745 24.0698 147.019 25.3328 147.04 27.8163C147.051 30.3741 146.766 31.9131 145.977 33.5475C145.44 34.6725 145.04 35.1926 144.271 35.7763C143.25 36.5405 142.66 36.6784 140.028 36.7103C137.817 36.7315 137.817 36.7315 137.786 28.2409C137.775 23.571 137.786 19.6866 137.817 19.6123C137.891 19.4106 140.986 19.4425 141.871 19.6547ZM144.345 49.2021C144.376 49.2552 144.366 49.3082 144.303 49.3082C144.25 49.3082 144.166 49.2552 144.134 49.2021C144.103 49.1384 144.113 49.096 144.176 49.096C144.229 49.096 144.313 49.1384 144.345 49.2021Z" fill="#E99206"/>
<path d="M154.368 18.7108C154.189 18.8806 154.336 19.061 154.852 19.3051C155.8 19.7403 156.431 20.5575 156.884 21.9266C157.073 22.4785 157.084 23.232 157.116 36.4137C157.137 44.777 157.105 50.7205 157.042 51.336C156.873 53.0872 156.031 54.4988 154.82 55.0825C154.494 55.2417 154.347 55.3691 154.347 55.5177C154.347 55.7193 154.431 55.7299 156.768 55.7618C158.105 55.7724 159.295 55.7618 159.432 55.7299C159.59 55.6875 159.663 55.592 159.663 55.4328C159.663 55.3054 159.779 55.0188 159.927 54.8066C160.074 54.5943 160.19 54.329 160.19 54.2335C160.19 54.1379 160.369 53.9044 160.59 53.7134C160.979 53.3632 160.979 53.3632 161 43.1426L161.032 32.9114L164.211 32.8795C167.149 32.8583 167.433 32.8689 167.77 33.0493C168.749 33.58 169.36 35.639 169.497 38.9609C169.539 39.7994 169.56 39.9161 169.739 39.9161C169.918 39.9161 169.928 39.6296 169.949 32.4868C169.96 28.3901 169.939 24.9938 169.886 24.9089C169.834 24.824 169.718 24.7922 169.633 24.824C169.528 24.8665 169.465 25.1743 169.412 26.0339C169.318 27.5623 169.075 29.0163 168.739 30.0458C168.528 30.7038 168.36 31.001 167.981 31.3937C167.496 31.9031 167.496 31.9031 164.369 31.9031C162.653 31.9031 161.211 31.9137 161.169 31.9243C161.043 31.9668 160.958 19.6554 161.085 19.5598C161.148 19.5174 162.99 19.4962 165.191 19.5068C169.065 19.5386 169.202 19.5492 169.612 19.7721C171.192 20.6318 172.192 23.5929 172.487 28.2946C172.55 29.3347 172.592 29.5151 172.75 29.5469C172.918 29.5788 172.929 29.271 172.929 24.1129V18.6365H163.685C158.6 18.6365 154.399 18.6683 154.368 18.7108ZM159.948 54.4245C159.916 54.5094 159.884 54.4776 159.884 54.3608C159.874 54.2441 159.905 54.1804 159.937 54.2228C159.969 54.2547 159.979 54.3502 159.948 54.4245Z" fill="#E99206"/>
<path d="M189.943 23.476C186.826 24.2402 183.205 29.4301 179.404 38.5894C178.014 41.9644 176.077 47.6637 175.203 51.0069C174.993 51.7923 174.687 52.9598 174.519 53.6072C174.35 54.244 174.129 55.1355 174.035 55.5813C173.887 56.2923 173.74 56.5789 172.898 57.8631C171.539 59.9221 171.034 60.6438 169.908 62.0554C168.465 63.8808 167.17 64.974 166.317 65.0908C165.97 65.1332 165.875 65.112 165.728 64.8997C165.212 64.1462 165.991 60.803 168.076 54.9338C168.56 53.586 168.486 53.0234 167.833 53.0234C167.56 53.0234 167.023 53.5647 166.433 54.4456C166.117 54.9232 165.738 55.4857 165.58 55.698C164.043 57.81 163.538 58.4893 163.022 59.1261C162.411 59.8902 161.422 60.8773 161.274 60.8773C160.485 60.8561 160.664 58.553 161.653 56.0482C162.696 53.4161 163.896 51.7499 164.738 51.7499C165.075 51.7499 165.201 52.0683 165.096 52.6308C164.97 53.2994 164.98 53.3949 165.138 53.3949C165.338 53.3949 165.57 52.5565 165.486 52.1213C165.359 51.4315 164.896 51.2298 163.949 51.4845C162.401 51.8878 161.053 53.3843 159.737 56.1544C159.4 56.8655 158.074 59.0624 157.474 59.9221C156.379 61.461 154.989 62.6922 154.168 62.8407C152.968 63.0636 152.189 61.2594 152.189 58.2876C152.199 53.9468 153.473 49.8819 154.915 49.5954C155.326 49.5105 155.747 49.7227 156 50.1366C156.189 50.4444 156.231 50.6779 156.231 51.2829C156.231 51.9409 156.189 52.1425 155.831 52.8643C155.61 53.3206 155.473 53.7239 155.526 53.777C155.863 54.1166 156.632 52.3336 156.621 51.2192C156.621 49.7333 155.695 48.8843 154.368 49.139C153.536 49.2982 152.389 50.4975 151.81 51.8135C151.546 52.4185 151.083 53.9044 150.915 54.6685C150.567 56.2923 150.494 58.5954 150.757 59.9433C151.262 62.5648 153.105 63.9339 154.905 63.0106C156.2 62.3419 157.99 60.2086 159.085 58.0117C159.295 57.5978 159.495 57.2794 159.527 57.3112C159.558 57.3431 159.537 57.6508 159.464 57.9905C159.243 59.1261 159.622 60.2723 160.422 60.8667C161.169 61.4186 161.453 61.3549 162.401 60.3678C163.233 59.5188 164.812 57.4598 165.454 56.3879C165.802 55.8147 166.075 55.5706 165.938 55.9633C165.044 58.6273 164.77 59.7629 164.633 61.5035C164.486 63.191 164.728 64.4752 165.296 65.1014C165.602 65.441 165.717 65.4941 166.107 65.4941C166.886 65.4941 167.686 65.0059 168.876 63.8066C169.455 63.2122 170.234 62.3525 170.592 61.8749C171.266 61.0046 172.845 58.6697 173.382 57.7464C173.74 57.1308 173.845 57.1839 173.624 57.8737C173.308 58.8714 172.887 61.599 172.613 64.4327C172.255 68.2323 172.455 71.533 173.182 73.6769C173.508 74.6533 173.708 75.0248 174.161 75.5342C174.677 76.1074 175.214 76.3727 175.887 76.3727C176.582 76.3727 177.014 76.1604 177.614 75.513C178.625 74.4305 179.246 72.4245 179.246 70.2594C179.246 67.1922 178.256 64.645 176.277 62.6391C175.877 62.2358 175.572 61.8962 175.582 61.8855C175.603 61.8749 175.972 61.8006 176.403 61.7263C177.414 61.5565 178.951 60.994 179.962 60.4421C181.562 59.5506 183.194 58.0966 183.815 57.0247C184.142 56.4728 184.342 56.4409 184.184 56.9822C184.036 57.4916 184.068 58.7122 184.247 59.7735C184.647 62.119 185.9 63.3183 187.942 63.3183C189.153 63.3183 190.216 62.6815 191.543 61.1638C192.701 59.8372 195.112 56.0376 194.996 55.7192C194.901 55.4645 194.68 55.6662 194.354 56.2923C194.185 56.6214 193.691 57.4386 193.269 58.1072C191.28 61.2487 189.679 62.7558 188.132 62.9575C186.605 63.1485 185.858 61.7476 185.868 58.7016C185.868 57.8843 185.931 56.8018 185.994 56.2817C186.131 55.3584 186.131 55.3584 186.637 55.3584C188.111 55.3584 189.606 53.6072 189.743 51.7286C189.837 50.3914 189.427 49.8076 188.374 49.8076C186.574 49.8076 185.047 51.7499 184.405 54.8383C184.194 55.8466 184.131 56.0058 183.626 56.685C181.762 59.1579 179.193 60.7712 176.193 61.3443C175.035 61.5671 174.993 61.5671 175.077 61.27C175.108 61.1426 175.33 60.1025 175.561 58.9669C176.635 53.7239 176.54 54.0848 176.993 53.7239C177.688 53.1826 180.351 50.5081 181.815 48.8843C186.984 43.1319 190.89 36.8912 192.554 31.7226C193.733 28.0291 193.733 25.5987 192.564 24.2827C191.848 23.476 191.006 23.2213 189.943 23.476ZM191.669 24.0704C193.543 25.0256 193.459 28.4749 191.438 33.6011C190.006 37.2309 186.868 42.2934 183.552 46.2946C181.552 48.7038 177.014 53.4692 176.867 53.31C176.824 53.2782 176.846 53.1084 176.909 52.9492C176.972 52.79 177.13 52.2487 177.246 51.7499C177.983 48.7994 179.562 43.843 180.93 40.2344C182.236 36.7851 182.373 36.4455 182.815 35.4266C183.047 34.896 183.426 34.0257 183.657 33.5162C185.584 29.1223 188.047 25.2909 189.553 24.3463C190.416 23.8051 190.995 23.7308 191.669 24.0704ZM177.456 47.9291C177.456 47.9821 177.435 48.0352 177.414 48.0352C177.382 48.0352 177.33 47.9821 177.298 47.9291C177.267 47.8654 177.288 47.8229 177.34 47.8229C177.404 47.8229 177.456 47.8654 177.456 47.9291ZM189.206 50.5293C189.5 50.9857 189.363 52.3017 188.942 53.1402C188.563 53.8725 188.121 54.4032 187.616 54.7216C187.289 54.9232 186.195 55.1355 186.195 54.9869C186.195 54.8383 186.71 52.9598 186.921 52.3548C187.205 51.527 187.658 50.7098 187.963 50.4656C188.353 50.1579 188.984 50.1897 189.206 50.5293ZM161.453 54.764C161.453 54.7959 161.411 54.8489 161.348 54.8808C161.296 54.9126 161.243 54.8914 161.243 54.8383C161.243 54.7746 161.296 54.7216 161.348 54.7216C161.411 54.7216 161.453 54.7428 161.453 54.764ZM174.719 57.3749C174.719 57.428 174.677 57.481 174.614 57.481C174.561 57.481 174.508 57.428 174.508 57.3749C174.508 57.3112 174.561 57.2688 174.614 57.2688C174.677 57.2688 174.719 57.3112 174.719 57.3749ZM175.94 62.8089C177.235 64.178 177.983 65.441 178.456 67.0754C179.457 70.5672 178.509 74.9611 176.561 75.8526C175.982 76.118 175.835 76.1074 175.414 75.7253C174.908 75.2795 174.645 74.5047 174.382 72.7217C174.056 70.4505 174.203 66.4811 174.719 63.1591C174.898 62.0447 174.929 61.9386 175.024 61.9386C175.066 61.9386 175.487 62.3313 175.94 62.8089Z" fill="#E99206"/>
<path d="M172.581 44.8084C172.539 44.8508 172.508 45.1904 172.508 45.5725C172.508 46.7824 172.108 49.7435 171.76 51.0596C171.529 51.9829 171.055 53.0655 170.613 53.7129C170.234 54.2754 169.349 54.8273 168.844 54.8273C168.612 54.8273 168.486 54.891 168.444 55.0077C168.412 55.1139 168.339 55.2837 168.275 55.4004C168.212 55.5172 168.212 55.6339 168.265 55.687C168.317 55.7401 169.37 55.7719 170.623 55.7613C172.876 55.7294 172.876 55.7294 172.876 50.2742C172.876 45.0206 172.855 44.543 172.581 44.8084Z" fill="#E99206"/>
<path d="M199.842 30.8358C199.842 31.4938 199.621 31.9608 199.263 32.0457C198.968 32.12 198.905 32.396 199.157 32.4915C199.61 32.6719 200.263 32.0351 200.263 31.4195C200.263 31.133 200.263 31.133 200.621 31.3559C201.221 31.7379 202.19 31.5681 202.021 31.1118C201.968 30.9738 201.874 30.9419 201.6 30.995C201.179 31.0799 200.41 30.7934 200.252 30.5068C200.042 30.1035 199.842 30.2733 199.842 30.8358Z" fill="#E99206"/>
<path d="M162.527 54.9545C162.454 55.0288 162.401 55.1243 162.401 55.188C162.401 55.2411 162.327 55.379 162.233 55.4852C161.98 55.7611 162.148 55.7929 163.77 55.7611C165.149 55.7293 165.191 55.7186 165.307 55.4745C165.381 55.3366 165.517 55.1774 165.602 55.1243C166.012 54.8908 165.696 54.8271 164.212 54.8271C163.138 54.8271 162.612 54.8696 162.527 54.9545Z" fill="#E99206"/>
<path d="M152.652 55.4008C152.61 55.5069 152.631 55.6343 152.694 55.698C152.778 55.7829 152.831 55.7723 152.883 55.6343C152.926 55.5282 152.904 55.4008 152.841 55.3371C152.757 55.2522 152.704 55.2628 152.652 55.4008Z" fill="#E99206"/>
</svg>
